<?xml version="1.0" encoding="utf-8"?>
<!-- Generator: Adobe Illustrator 24.1.0, SVG Export Plug-In . SVG Version: 6.00 Build 0)  -->
<svg version="1.1" id="Layer_1" xmlns="http://www.w3.org/2000/svg" xmlns:xlink="http://www.w3.org/1999/xlink" x="0px" y="0px"
	 viewBox="0 0 789 239.9" style="enable-background:new 0 0 789 239.9;" xml:space="preserve">
<style type="text/css">
	.st0{clip-path:url(#SVGID_2_);fill:#FCD29A;}
</style>
<g>
	<defs>
		<rect id="SVGID_1_" width="789" height="239.9"/>
	</defs>
	<clipPath id="SVGID_2_">
		<use xlink:href="#SVGID_1_"  style="overflow:visible;"/>
	</clipPath>
	<path class="st0" d="M780.1,56.9c1.5,0,3,0.4,4.4,1.1c1.4,0.8,2.5,1.9,3.3,3.3c0.8,1.4,1.2,2.9,1.2,4.5c0,1.5-0.4,3-1.2,4.4
		c-0.8,1.4-1.9,2.5-3.3,3.3c-1.4,0.8-2.9,1.2-4.4,1.2c-1.5,0-3-0.4-4.4-1.2c-1.4-0.8-2.5-1.9-3.3-3.3c-0.8-1.4-1.2-2.9-1.2-4.4
		c0-1.6,0.4-3,1.2-4.5c0.8-1.4,1.9-2.5,3.3-3.3C777.2,57.3,778.6,56.9,780.1,56.9 M780.1,58.6c-1.2,0-2.4,0.3-3.5,0.9
		c-1.1,0.6-2,1.5-2.6,2.6c-0.6,1.1-1,2.3-1,3.6c0,1.2,0.3,2.4,0.9,3.6c0.6,1.1,1.5,2,2.6,2.6c1.1,0.6,2.3,0.9,3.5,0.9
		c1.2,0,2.4-0.3,3.5-0.9c1.1-0.6,2-1.5,2.6-2.6c0.6-1.1,1-2.3,1-3.6c0-1.2-0.3-2.4-1-3.6c-0.6-1.1-1.5-2-2.7-2.6
		C782.5,58.9,781.4,58.6,780.1,58.6 M776.1,70.5v-9.4h1.9c1.8,0,2.8,0,3,0c0.6,0.1,1.1,0.2,1.5,0.4c0.4,0.2,0.6,0.5,0.9,0.9
		c0.2,0.4,0.4,0.9,0.4,1.3c0,0.7-0.2,1.3-0.7,1.7c-0.4,0.5-1.1,0.8-1.9,0.9c0.3,0.1,0.5,0.2,0.7,0.4c0.2,0.1,0.4,0.4,0.6,0.7
		c0.1,0.1,0.3,0.5,0.7,1.1l1.1,1.9H782l-0.8-1.5c-0.5-1-1-1.7-1.3-1.9c-0.3-0.3-0.8-0.4-1.3-0.4H778v3.9H776.1z M778,65.2h0.8
		c1.1,0,1.8,0,2.1-0.1c0.3-0.1,0.5-0.2,0.6-0.4c0.2-0.2,0.2-0.5,0.2-0.7c0-0.3-0.1-0.5-0.2-0.7c-0.2-0.2-0.4-0.4-0.6-0.4
		c-0.3-0.1-1-0.1-2-0.1H778V65.2z"/>
	<polygon class="st0" points="92.1,56.1 58.2,56.1 58.2,166.3 34,166.3 34,56.1 0,56.1 0,35.7 92.1,35.7 	"/>
	<path class="st0" d="M195.8,164.6c-4.6-1.2-9-3.5-13.2-6.9c-4.2-3.3-8.1-7.7-11.6-13.2c-0.2-0.3-0.4-0.7-0.6-1.1
		c-1.5-2.2-2.7-4-3.5-5.2c-0.9-1.2-2-2.6-3.5-4.1c-1.5-1.5-3-2.7-4.6-3.6c-1.3-0.6-2.6-1-4-1H143v36.7h-24.1V56
		c3.8,0,9.2,0,16.3-0.1c7-0.1,13.4-0.1,19.1-0.1s11.2,0.1,16.3,0.2c5.5,0.1,10.7,1,15.4,2.6c4.7,1.6,9,4.2,12.8,7.6
		c3.8,3.4,6.8,7.6,8.9,12.6c4.1,9.6,4.2,19,0.2,28.4c-4,9.4-10.8,15.9-20.5,19.8c1,1.4,2.2,3.2,3.7,5.3c1.5,2.2,2.6,3.7,3.2,4.6
		c0.6,0.9,1.6,2,2.9,3.3c1.3,1.3,2.5,2.2,3.6,2.6c1.1,0.5,2.6,0.9,4.4,1.2c1.8,0.3,3.8,0.4,6.1,0.2v22
		C205.6,166.3,200.5,165.8,195.8,164.6 M143,109h28.2c4.2,0,7.9-1.5,10.9-4.5c3-3,4.5-6.7,4.5-11c0-4.3-1.5-8-4.5-11
		c-3-3-6.7-4.5-10.9-4.5H143V109z"/>
	<path class="st0" d="M339,55.8V120c0,12.6-4.5,23.5-13.5,32.5c-9,9-19.8,13.5-32.5,13.5c-12.7-0.1-23.5-4.6-32.5-13.6
		c-9-9-13.5-19.8-13.5-32.4V56h24.2v64.2c0,6.1,2.1,11.2,6.4,15.5c4.2,4.3,9.4,6.5,15.5,6.5c6.1,0,11.2-2.2,15.5-6.5
		c4.3-4.3,6.5-9.5,6.5-15.5V55.8H339z"/>
	<polygon class="st0" points="474.2,35.7 417.3,166.3 360.1,35.7 385.3,35.7 417.3,111.3 449.4,35.7 	"/>
	<rect x="499.5" y="56" class="st0" width="24.2" height="110.3"/>
	<path class="st0" d="M591.5,166.7c-4.1,0-8.8,0-14.1-0.1c-5.3-0.1-9.2-0.1-11.9-0.1V56.3c2.7,0,6.6,0,11.8-0.1
		c5.2-0.1,9.9-0.1,14-0.1c4.1,0,8.1,0.1,11.8,0.3c9.6,0.4,18.5,3.1,26.9,8c8.3,4.9,15,11.6,20,19.9c5,8.3,7.5,17.3,7.5,27
		c-0.1,7.3-1.6,14.3-4.5,21c-2.9,6.6-6.7,12.4-11.6,17.3c-4.9,4.9-10.7,8.8-17.3,11.8c-6.6,3-13.6,4.6-20.8,4.9
		C599.6,166.6,595.7,166.7,591.5,166.7 M593.8,144.5c2,0.1,3.4,0.1,4.2,0c0.8-0.1,2.1-0.1,3.8-0.2c1.8-0.1,3.2-0.2,4.2-0.4
		c1.1-0.2,2.3-0.5,3.7-0.9c1.4-0.4,2.8-0.8,4.1-1.4c5.8-2.8,10.5-6.9,14.1-12.4c3.6-5.5,5.3-11.4,5.3-17.9s-1.8-12.5-5.3-18.1
		c-3.5-5.6-8.2-9.7-14-12.4c-1.3-0.5-2.6-1-4.1-1.4c-1.4-0.4-2.7-0.7-3.7-0.9c-1.1-0.2-2.5-0.3-4.2-0.4c-1.8-0.1-3.1-0.1-3.9-0.2
		c-0.8-0.1-2.3-0.1-4.3,0c-2,0.1-3.3,0.1-4,0.1v66.2C590.4,144.4,591.7,144.5,593.8,144.5"/>
	<polygon class="st0" points="708.8,78.1 708.8,102.7 748,102.7 748,123.1 708.8,123.1 708.8,144.3 757.1,144.3 757.1,166.3 
		684.7,166.3 684.7,56.1 757.1,56.1 757.1,78.1 	"/>
	<path class="st0" d="M303.1,42.1c-1.2,0-2.4-0.6-3.2-1.6c-1.2-1.8-0.8-4.2,0.9-5.4l0.6-0.4c1.8-1.3,2.8-3.1,2.8-5.1
		c0-2-1-3.8-2.7-5.1l-1-0.7c-3.9-2.8-6-7.1-5.9-11.6c0.1-4.6,2.5-8.7,6.5-11.4c1.8-1.2,4.2-0.7,5.4,1.1c1.2,1.8,0.7,4.2-1.1,5.4
		c-1.9,1.3-3,3.1-3,5.1c0,2,1,3.9,2.7,5.2l1,0.7c3.8,2.8,6,7,5.9,11.4c0,4.5-2.3,8.6-6.1,11.4l-0.6,0.4
		C304.7,41.8,303.9,42.1,303.1,42.1"/>
	<path class="st0" d="M282.5,42.1c-1.2,0-2.4-0.6-3.2-1.6c-1.2-1.8-0.8-4.2,0.9-5.4l0.6-0.4c1.8-1.3,2.8-3.1,2.8-5.1
		c0-2-1-3.8-2.7-5.1l-1-0.7c-3.9-2.8-6-7.1-5.9-11.6c0.1-4.6,2.5-8.7,6.5-11.4c1.8-1.2,4.2-0.7,5.4,1.1c1.2,1.8,0.7,4.2-1.1,5.4
		c-1.9,1.3-3,3.1-3,5.1c0,2,1,3.9,2.7,5.2l1,0.7c3.8,2.8,6,7,5.9,11.4c0,4.5-2.3,8.6-6.1,11.4l-0.6,0.4
		C284.1,41.8,283.3,42.1,282.5,42.1"/>
	<path class="st0" d="M104.1,225.7c0-6,4.3-10.4,10.1-10.4c5.9,0,10.1,4.4,10.1,10.4c0,2.8-0.9,5.2-2.4,7l3.3,4.4l-3.7,2.8l-3.4-4.5
		c-1.2,0.5-2.5,0.7-3.9,0.7C108.4,236.1,104.1,231.7,104.1,225.7 M109.1,225.7c0,3.4,2.2,5.8,5.2,5.8c3,0,5.2-2.4,5.2-5.8
		c0-3.4-2.2-5.8-5.2-5.8C111.3,219.9,109.1,222.3,109.1,225.7"/>
	<path class="st0" d="M134.4,228.1v-12.6h4.9v12.6c0,1.9,1.7,3.3,4.1,3.3c2.4,0,4.1-1.4,4.1-3.3v-12.6h4.9v12.6c0,4.7-3.8,8-9.1,8
		C138.2,236.1,134.4,232.7,134.4,228.1"/>
	<path class="st0" d="M168.5,215.5h5.6l7.5,20.3h-5l-1.4-3.8h-8l-1.4,3.8h-5L168.5,215.5z M173.8,227.6l-2.4-6.8l-2.4,6.8H173.8z"/>
	<polygon class="st0" points="191.1,215.5 196,215.5 196,231.5 205.4,231.5 205.4,235.8 191.1,235.8 	"/>
	<rect x="214.7" y="215.5" class="st0" width="4.9" height="20.3"/>
	<polygon class="st0" points="228.8,215.5 245.4,215.5 245.4,219.9 239.6,219.9 239.6,235.8 234.6,235.8 234.6,219.9 228.8,219.9 	
		"/>
	<polygon class="st0" points="259.5,215.5 263.8,223.6 268.1,215.5 273.5,215.5 266.3,228.4 266.3,235.8 261.3,235.8 261.3,228.4 
		254,215.5 	"/>
	<path class="st0" d="M297.9,215.5h7.4c5.9,0,10.1,4.3,10.1,10.2c0,5.8-4.3,10.2-10.1,10.2h-7.4V215.5z M302.8,219.9v11.6h2.5
		c3,0,5.2-2.5,5.2-5.8c0-3.3-2.2-5.8-5.2-5.8H302.8z"/>
	<rect x="325.6" y="215.5" class="st0" width="4.9" height="20.3"/>
	<polygon class="st0" points="346.5,215.5 354.9,227.7 354.9,215.5 359.9,215.5 359.9,235.8 354.9,235.8 346.5,223.7 346.5,235.8 
		341.6,235.8 341.6,215.5 	"/>
	<rect x="371" y="215.5" class="st0" width="4.9" height="20.3"/>
	<polygon class="st0" points="391.9,215.5 400.3,227.7 400.3,215.5 405.2,215.5 405.2,235.8 400.3,235.8 391.9,223.7 391.9,235.8 
		387,235.8 387,215.5 	"/>
	<path class="st0" d="M425.8,215.2c3,0,5.7,1.2,7.5,3.1l-3.7,3.1c-1-1-2.3-1.5-3.8-1.5c-3.1,0-5.4,2.4-5.4,5.8
		c0,3.4,2.3,5.8,5.5,5.8c1.1,0,2.1-0.3,3-0.8V228h-4.6v-4.4h9.3v9.3c-1.9,1.9-4.5,3.1-7.6,3.1c-6,0-10.4-4.4-10.4-10.4
		S419.8,215.2,425.8,215.2"/>
	<polygon class="st0" points="458.2,215.5 463.3,215.5 469,225.2 474.7,215.5 479.8,215.5 479.8,235.8 474.9,235.8 474.9,223.3 
		470.4,231.5 467.7,231.5 463.2,223.3 463.2,235.8 458.2,235.8 	"/>
	<path class="st0" d="M496.7,215.5h5.6l7.5,20.3h-5l-1.4-3.8h-8l-1.4,3.8h-5L496.7,215.5z M502,227.6l-2.4-6.8l-2.4,6.8H502z"/>
	<path class="st0" d="M519.3,215.5h7.4c5.9,0,10.1,4.3,10.1,10.2c0,5.8-4.3,10.2-10.1,10.2h-7.4V215.5z M524.2,219.9v11.6h2.5
		c3,0,5.2-2.5,5.2-5.8c0-3.3-2.2-5.8-5.2-5.8H524.2z"/>
	<polygon class="st0" points="562,215.5 562,219.9 552,219.9 552,223.3 560.8,223.3 560.8,227.7 552,227.7 552,231.5 562,231.5 
		562,235.8 547,235.8 547,215.5 	"/>
	<polygon class="st0" points="602.1,215.5 602.1,219.9 592.1,219.9 592.1,223.3 601,223.3 601,227.7 592.1,227.7 592.1,231.5 
		602.1,231.5 602.1,235.8 587.2,235.8 587.2,215.5 	"/>
	<path class="st0" d="M618.9,215.5h5.6l7.5,20.3h-5l-1.4-3.8h-8l-1.4,3.8h-5L618.9,215.5z M624.2,227.6l-2.4-6.8l-2.4,6.8H624.2z"/>
	<path class="st0" d="M643.9,229.5c1.3,1.2,3,1.9,4.7,1.9c1.6,0,2.7-0.7,2.7-1.5c0-2.6-10-1.2-10-8.5c0-3.9,2.8-6.2,7.3-6.2
		c3.1,0,5.7,1.1,7,3l-3.4,3.4c-0.9-1.1-2.3-1.7-4.1-1.7c-1.2,0-2,0.3-2,1.1c0,2.8,10,1.6,10,8.8c0,3.9-3,6.3-7.8,6.3
		c-3.2,0-5.8-1.1-7.8-3.1L643.9,229.5z"/>
	<polygon class="st0" points="669.4,215.5 673.7,223.6 677.9,215.5 683.4,215.5 676.2,228.4 676.2,235.8 671.2,235.8 671.2,228.4 
		663.9,215.5 	"/>
</g>
</svg>
